<svg xmlns="http://www.w3.org/2000/svg" width="88" height="88" viewBox="0 0 88 88" fill="none"><g clip-path="url(#clip0_334_1820)"><path fill-rule="evenodd" clip-rule="evenodd" d="M43.7575 87.9998C35.065 87.9519 26.5815 85.3303 19.3774 80.4659C12.1733 75.6014 6.5715 68.7121 3.27881 60.6672C-0.0138781 52.6223 -0.849887 43.7823 0.876275 35.2628C2.60244 26.7432 6.81342 18.9259 12.9779 12.7971C19.1423 6.66836 26.984 2.50286 35.5133 0.826231C44.0427 -0.850399 52.8776 0.036975 60.9032 3.37638C68.9288 6.71578 75.7854 12.3576 80.6079 19.5898C85.4304 26.8221 88.0026 35.3208 88 44.0134C87.9836 49.8068 86.8263 55.5402 84.5939 60.8862C82.3616 66.2322 79.098 71.0861 74.9896 75.1707C70.8812 79.2553 66.0085 82.4906 60.6496 84.6918C55.2908 86.8931 49.5508 88.0171 43.7575 87.9998Z" fill="#0022F6"></path><path fill-rule="evenodd" clip-rule="evenodd" d="M70.4917 40.6505C70.7808 40.8628 71.0141 41.1402 71.172 41.4594C71.3299 41.7787 71.4079 42.1305 71.3994 42.4855V51.5106C71.4111 51.975 71.336 52.4374 71.1777 52.875C71.0132 53.3363 70.7797 53.7709 70.4848 54.1643C70.4848 54.1643 70.3947 54.2598 70.2977 54.3826C70.1627 54.5443 70.0169 54.697 69.8612 54.8396C69.1152 55.5114 68.3285 56.1379 67.5054 56.7156C66.025 57.704 64.4378 58.5276 62.7729 59.1714C60.327 60.1155 57.7991 60.8393 55.2203 61.3339C51.705 61.9806 48.1325 62.2777 44.5567 62.2207C41.6733 62.2567 38.7914 62.0719 35.9371 61.6682C33.6996 61.3432 31.4883 60.8622 29.32 60.2288C27.6533 59.7367 26.0309 59.1093 24.4697 58.3528C23.3421 57.7869 22.2521 57.1512 21.2062 56.4495C20.5383 55.9934 19.9205 55.4699 19.3631 54.8874C19.1439 54.6487 18.9126 54.421 18.6702 54.2052C18.3894 53.8085 18.1678 53.3744 18.0119 52.9159C17.8407 52.4817 17.7651 52.0167 17.7902 51.5516V42.4582C17.7732 42.1673 17.8208 41.8762 17.9297 41.6053C18.0386 41.3343 18.2062 41.09 18.4208 40.8892C18.6952 40.6062 19.0593 40.4234 19.4532 40.3708C19.8677 40.2957 20.2927 40.2957 20.7073 40.3708L31.4818 43.6589C32.0558 43.8128 32.5503 44.173 32.8676 44.6685C33.2152 45.1761 33.3987 45.7753 33.3942 46.3875V49.6961C33.4033 49.8237 33.4362 49.9485 33.4912 50.0644L33.706 50.3714C34.4224 50.8068 35.1934 51.1485 35.9995 51.3878C37.0842 51.7197 38.194 51.966 39.3184 52.1246C41.0539 52.358 42.806 52.4493 44.5567 52.3975C46.3167 52.4502 48.0781 52.3589 49.8227 52.1246C50.9619 51.9724 52.0861 51.7259 53.1832 51.3878C53.7937 51.2318 54.3824 51.0027 54.9363 50.7057L55.4698 50.3373C55.5355 50.2641 55.5893 50.1812 55.6292 50.0917C55.6825 49.9756 55.7131 49.8506 55.7192 49.7233V45.8282C55.7636 45.0771 56.0867 44.3683 56.6269 43.8362C56.9521 43.5215 57.3488 43.2877 57.7841 43.154L68.4754 40.4254C68.811 40.3263 69.1644 40.3 69.5112 40.3483C69.8581 40.3966 70.1903 40.5183 70.4848 40.7051L70.4917 40.6505Z" fill="white"></path></g><defs><clipPath id="clip0_334_1820"><rect width="88" height="88" fill="white"></rect></clipPath></defs></svg>